<svg width="220" height="220" viewBox="0 0 220 220" fill="none" xmlns="http://www.w3.org/2000/svg">
<path d="M186.376 85.2182C186.478 81.7712 185.56 78.3768 183.739 75.4626C181.918 72.5483 179.274 70.2446 176.141 68.8415C173.008 67.4384 169.526 66.9988 166.133 67.5779C162.741 68.157 159.589 69.729 157.076 72.0959L134.337 93.5482L143.363 63.6271C144.128 61.4009 144.438 59.0452 144.275 56.7012C144.112 54.3571 143.478 52.0728 142.412 49.9852C141.346 47.8976 139.87 46.0495 138.072 44.5517C136.273 43.0538 134.19 41.937 131.947 41.2682C129.703 40.5993 127.346 40.3922 125.015 40.6591C122.685 40.926 120.429 41.6616 118.384 42.8216C116.339 43.9817 114.546 45.5425 113.112 47.4105C111.679 49.2785 110.634 51.4153 110.042 53.6929L103.504 75.3659L99.4426 71.6235C96.692 69.0225 93.1654 67.3971 89.3978 66.994C85.6303 66.5908 81.8276 67.432 78.5667 69.3897C75.3059 71.3474 72.7649 74.3149 71.3295 77.8417C69.8941 81.3686 69.6425 85.2623 70.613 88.932C68.2719 89.4146 66.0527 90.3764 64.0946 91.7571C62.1364 93.1379 60.4816 94.9078 59.2337 96.956L56.8922 100.747C49.9243 112.03 47.6958 125.601 50.6969 138.476C53.698 151.35 61.6829 162.473 72.8951 169.397L73.2174 169.596C96.461 183.708 127.197 176.032 141.738 152.485L142.835 150.709C146.908 144.106 148.679 136.342 147.87 128.645L180.853 97.4243C182.531 95.8531 183.884 93.9651 184.832 91.8698C185.78 89.7745 186.305 87.5136 186.376 85.2182ZM123.174 52.0625C124.477 51.3534 125.958 51.0472 127.43 51.1827C128.902 51.3183 130.299 51.8895 131.442 52.8238C132.586 53.7582 133.425 55.0136 133.853 56.4309C134.281 57.8482 134.279 59.3634 133.847 60.7844L123.541 94.9315C120.793 93.4594 117.696 92.7575 114.576 92.899C114.58 92.8356 114.581 92.772 114.577 92.7086C114.487 89.3269 113.407 86.0519 111.472 83.2912L119.55 56.5238C119.831 55.5785 120.296 54.6975 120.918 53.9317C121.54 53.1659 122.307 52.5306 123.174 52.0625ZM82.031 79.2497C82.708 78.5277 83.52 77.9465 84.4203 77.5396C85.3206 77.1326 86.2914 76.9079 87.2765 76.8785C88.2617 76.8491 89.2419 77.0156 90.1605 77.3683C91.0791 77.721 91.9179 78.253 92.6286 78.9336L102.259 87.8194C102.972 88.4909 103.545 89.2974 103.946 90.1928C104.346 91.0882 104.567 92.0549 104.594 93.0379C104.621 94.0208 104.456 95.0006 104.106 95.9213C103.756 96.842 103.229 97.6856 102.555 98.4039C101.878 99.1258 101.066 99.7071 100.166 100.114C99.2654 100.521 98.2947 100.746 97.3095 100.775C96.3243 100.804 95.3442 100.638 94.4256 100.285C93.507 99.9326 92.6682 99.4006 91.9574 98.72L82.3059 89.8211C80.8744 88.4632 80.0413 86.5885 79.9892 84.608C79.937 82.6274 80.6701 80.7025 82.0277 79.255L82.031 79.2497ZM68.6583 100.903C70.008 99.4686 71.8634 98.621 73.8235 98.5436C75.7836 98.4662 77.6911 99.1652 79.1337 100.49L83.8194 104.852C85.2578 106.208 86.0973 108.084 86.1534 110.068C86.2095 112.051 85.4777 113.981 84.1187 115.432C83.4436 116.152 82.6341 116.732 81.7366 117.138C80.8392 117.545 79.8715 117.771 78.8891 117.802C77.9067 117.833 76.9288 117.67 76.0116 117.321C75.0944 116.972 74.2559 116.445 73.5442 115.769L68.9166 111.442C67.4806 110.085 66.6438 108.208 66.5903 106.225C66.5368 104.241 67.2709 102.313 68.6312 100.864L68.6583 100.903ZM133.283 147.264C121.615 166.157 96.9999 172.339 78.4138 161.052C71.1421 156.633 65.4874 149.984 62.2794 142.083C59.0713 134.182 58.4789 125.443 60.5889 117.149C61.0653 117.726 61.5752 118.274 62.1159 118.79L66.7435 123.117C67.5957 123.92 68.5261 124.635 69.5209 125.251C72.1255 126.859 75.111 127.746 78.1757 127.824C81.2404 127.901 84.2758 127.166 86.9751 125.692C89.6744 124.219 91.9421 122.059 93.5491 119.431C95.156 116.804 96.0453 113.801 96.1271 110.727C96.6857 110.756 97.249 110.766 97.8128 110.74L97.812 110.93C97.8699 113.227 98.3819 115.486 99.3182 117.577C100.255 119.669 101.597 121.551 103.267 123.114L106.193 125.847C103.661 128.53 101.823 131.794 100.84 135.349C99.858 138.904 99.7613 142.642 100.559 146.234C100.874 147.496 101.669 148.583 102.774 149.261C103.88 149.939 105.209 150.155 106.477 149.863C107.745 149.57 108.851 148.793 109.56 147.697C110.269 146.601 110.524 145.273 110.27 143.996C109.692 141.398 109.959 138.677 111.034 136.233C112.109 133.789 113.934 131.75 116.242 130.414C116.919 130.024 117.496 129.48 117.927 128.826C118.358 128.173 118.63 127.427 118.722 126.651C118.814 125.874 118.722 125.088 118.456 124.355C118.189 123.622 117.754 122.964 117.185 122.432L110.087 115.793C108.651 114.437 107.813 112.562 107.758 110.579C107.703 108.596 108.435 106.667 109.793 105.217C110.468 104.499 111.276 103.919 112.173 103.513C113.069 103.107 114.035 102.881 115.016 102.849C115.998 102.817 116.974 102.979 117.891 103.327C118.807 103.674 119.645 104.199 120.357 104.873L130.266 114.136C134.452 118.066 137.148 123.333 137.898 129.045C138.648 134.758 137.405 140.567 134.38 145.488L133.283 147.264ZM174.076 90.183L144.932 117.729C143.058 113.6 140.391 109.886 137.082 106.798L135.925 105.717L163.854 79.3233C164.566 78.6301 165.408 78.085 166.33 77.7198C167.252 77.3546 168.237 77.1764 169.226 77.1958C170.215 77.2151 171.19 77.4315 172.093 77.8324C172.996 78.2333 173.81 78.8107 174.486 79.531C175.163 80.2514 175.69 81.1002 176.035 82.0283C176.381 82.9563 176.538 83.945 176.499 84.9369C176.46 85.9287 176.224 86.904 175.806 87.8059C175.388 88.7078 174.796 89.5183 174.064 90.1904L174.076 90.183Z" fill="#C44436"/>
</svg>
