<svg width="238" height="239" viewBox="0 0 238 239" fill="none" xmlns="http://www.w3.org/2000/svg">
<path d="M194.632 91.898C194.62 88.4495 193.591 85.0872 191.674 82.2345C189.758 79.3819 187.04 77.1666 183.862 75.8675C180.685 74.5685 177.19 74.2438 173.818 74.9345C170.447 75.6251 167.349 77.3001 164.915 79.7486L142.896 101.939L150.93 71.7363C151.621 69.4861 151.854 67.1215 151.613 64.7841C151.373 62.4467 150.664 60.1846 149.53 58.1332C148.396 56.0818 146.86 54.2834 145.013 52.8457C143.166 51.4079 141.047 50.3604 138.783 49.7659C136.519 49.1713 134.156 49.042 131.835 49.3856C129.515 49.7292 127.285 50.5386 125.279 51.7655C123.273 52.9924 121.533 54.6114 120.162 56.5257C118.79 58.4399 117.817 60.61 117.3 62.9059L111.48 84.7826L107.297 81.1761C104.463 78.6672 100.884 77.1589 97.1054 76.8801C93.3266 76.6014 89.5537 77.5674 86.3592 79.6315C83.1646 81.6957 80.7229 84.7453 79.4045 88.3175C78.0861 91.8898 77.963 95.7897 79.0539 99.4254C76.73 99.9849 74.5437 101.019 72.6321 102.464C70.7205 103.908 69.1249 105.732 67.9453 107.82L65.73 111.687C59.1378 123.193 57.3578 136.83 60.7816 149.599C64.2055 162.367 72.5527 173.22 83.9869 179.771L84.3157 179.96C108.012 193.298 138.478 184.613 152.235 160.6L153.273 158.789C157.126 152.054 158.64 144.237 157.578 136.57L189.514 104.279C191.14 102.654 192.429 100.722 193.308 98.5969C194.186 96.4714 194.636 94.1945 194.632 91.898ZM130.371 60.8434C131.65 60.0918 133.12 59.7369 134.596 59.8239C136.072 59.9109 137.486 60.4357 138.66 61.3319C139.833 62.228 140.713 63.4551 141.188 64.8575C141.663 66.2599 141.711 67.7744 141.326 69.2088L132.15 103.677C129.355 102.296 126.238 101.697 123.124 101.941C123.126 101.878 123.124 101.814 123.118 101.751C122.917 98.3739 121.73 95.1363 119.705 92.4409L126.896 65.4218C127.146 64.4677 127.582 63.5719 128.178 62.786C128.775 62.0001 129.52 61.3399 130.371 60.8434ZM90.1466 89.372C90.7994 88.6282 91.5918 88.0205 92.4782 87.5841C93.3646 87.1476 94.3274 86.8911 95.3111 86.8292C96.2948 86.7674 97.2799 86.9015 98.2096 87.2237C99.1393 87.5459 99.9952 88.05 100.728 88.7067L110.646 97.2703C111.381 97.918 111.98 98.7051 112.41 99.5868C112.84 100.469 113.092 101.428 113.152 102.409C113.212 103.39 113.078 104.375 112.759 105.307C112.439 106.239 111.941 107.099 111.291 107.839C110.638 108.583 109.846 109.191 108.959 109.627C108.073 110.064 107.11 110.32 106.126 110.382C105.143 110.444 104.157 110.31 103.228 109.988C102.298 109.665 101.442 109.161 100.709 108.505L90.7697 99.9286C89.2943 98.6186 88.3998 96.7724 88.2825 94.7947C88.1651 92.8169 88.8343 90.8689 90.1435 89.3775L90.1466 89.372ZM77.4949 111.455C78.7965 109.976 80.6229 109.068 82.5794 108.926C84.536 108.784 86.4655 109.42 87.9509 110.696L92.7779 114.902C94.2601 116.209 95.161 118.056 95.2825 120.037C95.404 122.018 94.7361 123.971 93.4257 125.465C92.7747 126.207 91.9847 126.814 91.1012 127.25C90.2177 127.686 89.258 127.943 88.2771 128.007C87.2962 128.071 86.3135 127.94 85.3853 127.621C84.4571 127.303 83.6017 126.803 82.8681 126.152L78.1004 121.979C76.6204 120.67 75.7222 118.822 75.6034 116.841C75.4845 114.861 76.1546 112.91 77.4665 111.417L77.4949 111.455ZM143.613 155.66C132.574 174.928 108.176 181.918 89.2276 171.249C81.8142 167.072 75.9434 160.614 72.4767 152.822C69.01 145.031 68.1298 136.316 69.9653 127.958C70.4604 128.518 70.9881 129.049 71.5456 129.547L76.3133 133.719C77.1915 134.493 78.1449 135.177 79.1595 135.761C81.8157 137.282 84.8288 138.07 87.8944 138.047C90.96 138.023 93.9695 137.188 96.6188 135.626C99.2681 134.065 101.463 131.831 102.983 129.152C104.502 126.473 105.292 123.443 105.272 120.368C105.832 120.378 106.395 120.37 106.958 120.325L106.963 120.515C107.097 122.808 107.683 125.05 108.688 127.109C109.693 129.169 111.096 131.005 112.817 132.513L115.831 135.147C113.389 137.913 111.66 141.235 110.795 144.821C109.93 148.406 109.957 152.146 110.872 155.709C111.228 156.96 112.059 158.02 113.186 158.661C114.314 159.302 115.649 159.475 116.907 159.141C118.164 158.807 119.245 157.994 119.917 156.875C120.589 155.756 120.8 154.42 120.504 153.153C119.841 150.575 120.019 147.847 121.012 145.369C122.006 142.89 123.762 140.792 126.025 139.381C126.689 138.969 127.248 138.406 127.657 137.739C128.066 137.071 128.314 136.317 128.38 135.538C128.446 134.759 128.329 133.976 128.038 133.252C127.747 132.529 127.291 131.885 126.705 131.372L119.392 124.971C117.912 123.663 117.012 121.816 116.892 119.836C116.771 117.856 117.44 115.905 118.75 114.411C119.4 113.67 120.189 113.064 121.072 112.629C121.954 112.193 122.912 111.936 123.892 111.871C124.872 111.807 125.853 111.937 126.78 112.254C127.708 112.571 128.563 113.068 129.297 113.718L139.505 122.65C143.818 126.439 146.687 131.614 147.624 137.299C148.562 142.984 147.511 148.83 144.651 153.849L143.613 155.66ZM182.502 97.2655L154.282 125.757C152.273 121.692 149.485 118.068 146.076 115.091L144.884 114.048L171.928 86.7486C172.616 86.0323 173.44 85.4598 174.349 85.0644C175.259 84.6689 176.237 84.4585 177.226 84.4452C178.216 84.4319 179.197 84.6161 180.113 84.987C181.029 85.3579 181.861 85.9082 182.561 86.6058C183.261 87.3034 183.815 88.1345 184.191 89.0506C184.567 89.9668 184.757 90.9497 184.751 91.9423C184.744 92.935 184.541 93.9174 184.153 94.8326C183.765 95.7478 183.199 96.5774 182.49 97.2733L182.502 97.2655Z" fill="#629677"/>
</svg>
