<svg width="49" height="49" viewBox="0 0 49 49" fill="none" xmlns="http://www.w3.org/2000/svg">
<path d="M45.237 35.8102C46.28 33.5417 46.7804 31.0614 46.6984 28.5659C46.6165 26.0704 45.9545 23.6282 44.7648 21.433C43.5752 19.2378 41.8906 17.3498 39.8446 15.9187C37.7986 14.4875 35.4474 13.5526 32.9774 13.1879C31.1765 9.34464 27.9291 6.36935 23.9433 4.91087C19.9576 3.4524 15.5568 3.62906 11.7007 5.40234C7.8447 7.17562 4.84623 10.4017 3.35925 14.3769C1.87227 18.3521 2.01742 22.7541 3.76305 26.6227L2.45383 31.0748C2.25981 31.7346 2.24711 32.4344 2.41704 33.1008C2.58698 33.7671 2.93328 34.3754 3.41956 34.8617C3.90583 35.348 4.51411 35.6943 5.18048 35.8642C5.84685 36.0341 6.54669 36.0214 7.20645 35.8274L11.6586 34.5182C13.0422 35.1524 14.509 35.5868 16.015 35.8083C17.7976 39.682 21.045 42.6896 25.0438 44.1705C29.0427 45.6513 33.4658 45.4841 37.3414 43.7057L41.7936 45.0149C42.4533 45.2089 43.1532 45.2216 43.8195 45.0517C44.4859 44.8818 45.0942 44.5355 45.5804 44.0492C46.0667 43.5629 46.413 42.9546 46.583 42.2883C46.7529 41.6219 46.7402 40.9221 46.5462 40.2623L45.237 35.8102ZM11.8672 29.7637C11.6475 29.7634 11.4289 29.795 11.2183 29.8575L7.25238 31.0231L8.42188 27.0553C8.58958 26.4798 8.5257 25.8616 8.24387 25.3326C6.94162 22.9057 6.55495 20.0916 7.15435 17.4033C7.75375 14.7151 9.2993 12.3318 11.5092 10.688C13.7191 9.04417 16.4462 8.24929 19.1932 8.44829C21.9403 8.64729 24.5243 9.82691 26.4742 11.7721C28.4242 13.7172 29.6101 16.2984 29.8158 19.0449C30.0215 21.7915 29.2333 24.5205 27.5948 26.7344C25.9564 28.9483 23.5769 30.4997 20.8901 31.1056C18.2034 31.7116 15.3883 31.3318 12.9582 30.0355C12.6227 29.8559 12.2478 29.7625 11.8672 29.7637ZM40.7485 34.5105C40.4666 35.0395 40.4028 35.6578 40.5705 36.2332L41.7361 40.2011L37.7759 39.0469C37.197 38.876 36.574 38.94 36.0418 39.2249C33.5725 40.5451 30.706 40.9177 27.9813 40.2727C25.2565 39.6276 22.8613 38.0093 21.2461 35.7221C25.2367 35.0013 28.807 32.7979 31.2406 29.5541C33.6742 26.3104 34.7911 22.2663 34.367 18.2334C35.9382 18.7746 37.3733 19.6504 38.5731 20.8003C39.7728 21.9502 40.7088 23.3468 41.3162 24.8937C41.9237 26.4405 42.1882 28.1008 42.0915 29.7598C41.9948 31.4188 41.5392 33.0371 40.7561 34.5029L40.7485 34.5105Z" fill="#F2D1A6"/>
</svg>
