<svg width="50" height="50" viewBox="0 0 50 50" fill="none" xmlns="http://www.w3.org/2000/svg">
<path d="M32.1055 35.3711C33.5472 33.9594 34.5358 32.1502 34.9451 30.1743C35.3544 28.1984 35.1659 26.1454 34.4035 24.2771C33.6411 22.4088 32.3395 20.81 30.6647 19.6845C28.9899 18.5591 27.0178 17.958 25 17.958C22.9822 17.958 21.0101 18.5591 19.3353 19.6845C17.6604 20.81 16.3589 22.4088 15.5965 24.2771C14.8341 26.1454 14.6456 28.1984 15.0549 30.1743C15.4642 32.1502 16.4527 33.9594 17.8945 35.3711C15.4534 36.6687 13.4238 38.6232 12.0352 41.0137C11.7378 41.5511 11.6632 42.1837 11.8275 42.7755C11.9918 43.3673 12.3819 43.871 12.9138 44.1782C13.4456 44.4853 14.0768 44.5714 14.6715 44.4179C15.2663 44.2644 15.7769 43.8836 16.0937 43.3574C17.0096 41.81 18.3127 40.5279 19.8747 39.6373C21.4368 38.7467 23.2039 38.2783 25.0019 38.2783C26.8 38.2783 28.5671 38.7467 30.1292 39.6373C31.6912 40.5279 32.9943 41.81 33.9102 43.3574C34.0609 43.6299 34.2645 43.8695 34.5089 44.0624C34.7534 44.2553 35.0338 44.3976 35.3338 44.4809C35.6338 44.5642 35.9475 44.5869 36.2564 44.5476C36.5653 44.5083 36.8632 44.4079 37.1329 44.2522C37.4025 44.0965 37.6385 43.8886 37.8269 43.6407C38.0153 43.3928 38.1524 43.1098 38.2302 42.8083C38.308 42.5068 38.325 42.1928 38.2801 41.8847C38.2352 41.5765 38.1294 41.2804 37.9687 41.0137C36.579 38.6226 34.548 36.6681 32.1055 35.3711ZM19.5312 28.125C19.5312 27.0434 19.852 25.9861 20.4529 25.0867C21.0538 24.1874 21.9079 23.4864 22.9072 23.0725C23.9065 22.6586 25.0061 22.5503 26.0669 22.7613C27.1277 22.9723 28.1022 23.4932 28.867 24.258C29.6318 25.0228 30.1527 25.9973 30.3637 27.0581C30.5747 28.1189 30.4664 29.2185 30.0525 30.2178C29.6385 31.2171 28.9376 32.0712 28.0383 32.6721C27.1389 33.273 26.0816 33.5937 25 33.5937C23.5496 33.5937 22.1586 33.0176 21.133 31.992C20.1074 30.9664 19.5312 29.5754 19.5312 28.125ZM48.2832 29.998C48.037 30.1831 47.7568 30.3179 47.4585 30.3946C47.1602 30.4713 46.8498 30.4884 46.5449 30.4451C46.2399 30.4017 45.9466 30.2987 45.6815 30.1419C45.4164 29.9851 45.1848 29.7776 45 29.5312C43.373 27.3652 41.123 25.7051 39.2715 25.3047C38.7791 25.1982 38.3342 24.9359 38.0026 24.5568C37.671 24.1776 37.4704 23.7016 37.4305 23.1995C37.3907 22.6974 37.5136 22.1957 37.7812 21.769C38.0487 21.3422 38.4467 21.013 38.916 20.8301C39.5004 20.602 40.0212 20.2365 40.4344 19.7645C40.8477 19.2926 41.1412 18.7281 41.2901 18.1187C41.4391 17.5094 41.4391 16.8731 41.2901 16.2637C41.1412 15.6544 40.8477 15.0899 40.4344 14.6179C40.0212 14.146 39.5004 13.7805 38.916 13.5524C38.3317 13.3243 37.701 13.2403 37.0773 13.3074C36.4536 13.3746 35.8553 13.591 35.3329 13.9383C34.8105 14.2856 34.3794 14.7536 34.0762 15.3027C33.9323 15.581 33.7342 15.8276 33.4935 16.028C33.2527 16.2284 32.9742 16.3785 32.6745 16.4694C32.3747 16.5604 32.0598 16.5903 31.7483 16.5574C31.4368 16.5246 31.135 16.4296 30.8608 16.2782C30.5866 16.1267 30.3456 15.9218 30.1519 15.6756C29.9583 15.4295 29.8159 15.1469 29.7333 14.8448C29.6507 14.5426 29.6295 14.227 29.6709 13.9165C29.7124 13.606 29.8156 13.307 29.9746 13.0371C30.5546 12.0116 31.3392 11.1163 32.2797 10.4068C33.2203 9.69736 34.2966 9.18884 35.442 8.91288C36.5873 8.63692 37.7772 8.59941 38.9377 8.80267C40.0981 9.00593 41.2044 9.44563 42.1878 10.0945C43.1711 10.7433 44.0106 11.5874 44.654 12.5743C45.2974 13.5612 45.731 14.6699 45.9279 15.8315C46.1248 16.993 46.0807 18.1826 45.7984 19.3265C45.5162 20.4703 45.0018 21.5438 44.2871 22.4805C46.0068 23.626 47.5165 25.059 48.75 26.7168C49.1232 27.2138 49.2836 27.8387 49.1961 28.4541C49.1085 29.0694 48.7802 29.6248 48.2832 29.998ZM10.7285 25.3105C8.87695 25.7109 6.62695 27.3711 5 29.5391C4.62574 30.0361 4.06937 30.3641 3.45329 30.4509C2.8372 30.5377 2.21186 30.3762 1.71484 30.0019C1.21782 29.6277 0.889825 29.0713 0.803016 28.4552C0.716207 27.8392 0.877693 27.2138 1.25195 26.7168C2.48601 25.0595 3.99559 23.6266 5.71484 22.4805C5.00019 21.5438 4.48577 20.4703 4.20351 19.3265C3.92125 18.1826 3.87719 16.993 4.07406 15.8315C4.27094 14.6699 4.70455 13.5612 5.34795 12.5743C5.99136 11.5874 6.83081 10.7433 7.81418 10.0945C8.79755 9.44563 9.90382 9.00593 11.0643 8.80267C12.2247 8.59941 13.4146 8.63692 14.56 8.91288C15.7053 9.18884 16.7817 9.69736 17.7222 10.4068C18.6628 11.1163 19.4474 12.0116 20.0273 13.0371C20.1863 13.307 20.2896 13.606 20.331 13.9165C20.3725 14.227 20.3513 14.5426 20.2686 14.8448C20.186 15.1469 20.0437 15.4295 19.85 15.6756C19.6564 15.9218 19.4153 16.1267 19.1411 16.2782C18.8669 16.4296 18.5652 16.5246 18.2537 16.5574C17.9422 16.5903 17.6272 16.5604 17.3275 16.4694C17.0277 16.3785 16.7492 16.2284 16.5085 16.028C16.2677 15.8276 16.0696 15.581 15.9258 15.3027C15.6225 14.7536 15.1915 14.2856 14.6691 13.9383C14.1467 13.591 13.5484 13.3746 12.9247 13.3074C12.301 13.2403 11.6703 13.3243 11.0859 13.5524C10.5016 13.7805 9.98076 14.146 9.56752 14.6179C9.15428 15.0899 8.86077 15.6544 8.71183 16.2637C8.56288 16.8731 8.56288 17.5094 8.71183 18.1187C8.86077 18.7281 9.15427 19.2926 9.56752 19.7645C9.98076 20.2365 10.5016 20.602 11.0859 20.8301C11.5553 21.013 11.9532 21.3422 12.2208 21.769C12.4883 22.1957 12.6113 22.6974 12.5714 23.1995C12.5315 23.7016 12.3309 24.1776 11.9993 24.5568C11.6677 24.9359 11.2228 25.1982 10.7305 25.3047L10.7285 25.3105Z" fill="#F2D1A6"/>
</svg>
