<svg width="49" height="49" viewBox="0 0 49 49" fill="none" xmlns="http://www.w3.org/2000/svg">
<path d="M42.519 20.2603L27.2065 4.94785C26.4886 4.23019 25.5151 3.82703 24.5 3.82703C23.4849 3.82703 22.5114 4.23019 21.7935 4.94785L6.48102 20.2603C6.1241 20.6151 5.84116 21.0372 5.64862 21.5021C5.45608 21.967 5.35776 22.4655 5.35938 22.9687V41.3438C5.35938 41.9529 5.60137 42.5371 6.03212 42.9679C6.46287 43.3986 7.04709 43.6406 7.65625 43.6406H19.9063C20.5154 43.6406 21.0996 43.3986 21.5304 42.9679C21.9611 42.5371 22.2031 41.9529 22.2031 41.3438V31.3906H26.7969V41.3438C26.7969 41.9529 27.0389 42.5371 27.4696 42.9679C27.9004 43.3986 28.4846 43.6406 29.0938 43.6406H41.3438C41.9529 43.6406 42.5371 43.3986 42.9679 42.9679C43.3986 42.5371 43.6406 41.9529 43.6406 41.3438V22.9687C43.6422 22.4655 43.5439 21.967 43.3514 21.5021C43.1588 21.0372 42.8759 20.6151 42.519 20.2603ZM39.0469 39.0469H31.3906V29.0938C31.3906 28.4846 31.1486 27.9004 30.7179 27.4696C30.2871 27.0389 29.7029 26.7969 29.0938 26.7969H19.9063C19.2971 26.7969 18.7129 27.0389 18.2821 27.4696C17.8514 27.9004 17.6094 28.4846 17.6094 29.0938V39.0469H9.95313V23.2846L24.5 8.73769L39.0469 23.2846V39.0469Z" fill="#F2D1A6"/>
</svg>
