<svg width="56" height="56" viewBox="0 0 56 56" fill="none" xmlns="http://www.w3.org/2000/svg">
<path d="M28 5.6875C23.587 5.6875 19.2731 6.9961 15.6038 9.44783C11.9346 11.8996 9.07471 15.3843 7.38593 19.4614C5.69715 23.5385 5.25529 28.0248 6.11622 32.353C6.97716 36.6812 9.10222 40.6569 12.2227 43.7773C15.3431 46.8978 19.3188 49.0228 23.647 49.8838C27.9752 50.7447 32.4615 50.3028 36.5386 48.6141C40.6157 46.9253 44.1004 44.0654 46.5522 40.3962C49.0039 36.7269 50.3125 32.413 50.3125 28C50.3055 22.0845 47.9525 16.4133 43.7696 12.2304C39.5867 8.04745 33.9155 5.69445 28 5.6875ZM15.6275 43.3125C16.9111 41.1781 18.725 39.412 20.893 38.186C23.061 36.9599 25.5093 36.3156 28 36.3156C30.4907 36.3156 32.939 36.9599 35.1069 38.186C37.2749 39.412 39.0889 41.1781 40.3725 43.3125C36.8733 46.15 32.5051 47.6985 28 47.6985C23.4949 47.6985 19.1267 46.15 15.6275 43.3125ZM20.5625 26.25C20.5625 24.779 20.9987 23.341 21.8159 22.1179C22.6332 20.8949 23.7948 19.9416 25.1538 19.3786C26.5128 18.8157 28.0082 18.6684 29.451 18.9554C30.8937 19.2424 32.2189 19.9507 33.2591 20.9909C34.2993 22.031 35.0076 23.3563 35.2946 24.799C35.5816 26.2417 35.4343 27.7372 34.8713 29.0962C34.3084 30.4552 33.3551 31.6168 32.132 32.4341C30.909 33.2513 29.471 33.6875 28 33.6875C26.0274 33.6875 24.1357 32.9039 22.7409 31.5091C21.3461 30.1143 20.5625 28.2225 20.5625 26.25ZM42.3303 41.4837C40.2681 38.2772 37.1856 35.859 33.5803 34.6194C35.3781 33.422 36.7428 31.6779 37.4727 29.6449C38.2027 27.6119 38.259 25.3981 37.6335 23.3306C37.008 21.2631 35.7338 19.4518 33.9994 18.1644C32.2649 16.8771 30.1622 16.182 28.0022 16.182C25.8422 16.182 23.7395 16.8771 22.005 18.1644C20.2705 19.4518 18.9963 21.2631 18.3708 23.3306C17.7453 25.3981 17.8017 27.6119 18.5316 29.6449C19.2616 31.6779 20.6263 33.422 22.4241 34.6194C18.8188 35.859 15.7363 38.2772 13.6741 41.4837C11.0377 38.6861 9.27811 35.1779 8.61227 31.3919C7.94643 27.606 8.4035 23.7079 9.9271 20.1787C11.4507 16.6494 13.9742 13.6434 17.1861 11.5315C20.3981 9.41967 24.1581 8.29431 28.0022 8.29431C31.8463 8.29431 35.6062 9.41967 38.8182 11.5315C42.0302 13.6434 44.5537 16.6494 46.0773 20.1787C47.6009 23.7079 48.0579 27.606 47.3921 31.3919C46.7262 35.1779 44.9666 38.6861 42.3303 41.4837Z" fill="#772E25"/>
</svg>
