<svg width="50" height="50" viewBox="0 0 50 50" fill="none" xmlns="http://www.w3.org/2000/svg">
<path d="M45.7773 41.0156C43.0995 36.3158 38.9181 32.6538 33.9062 30.6191C36.3986 28.7499 38.2396 26.1438 39.1686 23.1701C40.0975 20.1963 40.0672 17.0057 39.082 14.0501C38.0968 11.0946 36.2067 8.5239 33.6793 6.70226C31.1519 4.88063 28.1154 3.90039 25 3.90039C21.8846 3.90039 18.8481 4.88063 16.3207 6.70226C13.7933 8.5239 11.9032 11.0946 10.918 14.0501C9.93279 17.0057 9.90251 20.1963 10.8314 23.1701C11.7604 26.1438 13.6014 28.7499 16.0937 30.6191C11.0819 32.6538 6.90047 36.3158 4.22265 41.0156C4.05672 41.2824 3.94613 41.5799 3.89746 41.8903C3.84878 42.2007 3.86301 42.5177 3.93929 42.8225C4.01558 43.1273 4.15237 43.4136 4.34153 43.6645C4.53069 43.9153 4.76836 44.1256 5.04041 44.2828C5.31246 44.44 5.61334 44.5408 5.92515 44.5794C6.23696 44.618 6.55335 44.5935 6.8555 44.5073C7.15765 44.4212 7.4394 44.2752 7.68399 44.078C7.92858 43.8808 8.13103 43.6364 8.27929 43.3594C11.8184 37.2422 18.0684 33.5937 25 33.5937C31.9316 33.5937 38.1816 37.2441 41.7207 43.3594C42.042 43.876 42.5517 44.2475 43.1419 44.3952C43.7321 44.543 44.3566 44.4554 44.8834 44.151C45.4103 43.8466 45.7981 43.3493 45.9649 42.7642C46.1317 42.1791 46.0644 41.552 45.7773 41.0156ZM14.8437 18.75C14.8437 16.7413 15.4394 14.7777 16.5554 13.1075C17.6714 11.4373 19.2576 10.1356 21.1134 9.36685C22.9692 8.59815 25.0113 8.39702 26.9814 8.7889C28.9515 9.18078 30.7612 10.1481 32.1815 11.5684C33.6019 12.9888 34.5692 14.7985 34.9611 16.7686C35.353 18.7387 35.1518 20.7808 34.3831 22.6366C33.6144 24.4924 32.3127 26.0786 30.6425 27.1946C28.9723 28.3106 27.0087 28.9062 25 28.9062C22.3073 28.9031 19.7259 27.8321 17.8219 25.9281C15.9179 24.0241 14.8468 21.4427 14.8437 18.75Z" fill="#F2D1A6"/>
</svg>
