<svg width="64" height="64" viewBox="0 0 64 64" fill="none" xmlns="http://www.w3.org/2000/svg">
<path d="M48 4H26C24.9391 4 23.9217 4.42143 23.1716 5.17157C22.4214 5.92172 22 6.93913 22 8V27.1725L12.3125 36.8575C9.60232 39.6305 8.0948 43.3602 8.117 47.2376C8.1392 51.1149 9.68933 54.8272 12.4311 57.5689C15.1728 60.3107 18.8851 61.8608 22.7624 61.883C26.6398 61.9052 30.3695 60.3977 33.1425 57.6875L50.25 40.585C50.8084 40.0276 51.2506 39.3649 51.551 38.6354C51.8514 37.9059 52.004 37.124 52 36.335V8C52 6.93913 51.5786 5.92172 50.8284 5.17157C50.0783 4.42143 49.0609 4 48 4ZM48 8V12H26V8H48ZM30.3125 54.8575C29.3206 55.8722 28.1372 56.68 26.8309 57.2342C25.5245 57.7883 24.1213 58.0778 22.7023 58.0859C21.2833 58.0939 19.8769 57.8204 18.5643 57.2811C17.2518 56.7418 16.0593 55.9474 15.056 54.944C14.0526 53.9406 13.2582 52.7482 12.7189 51.4357C12.1796 50.1231 11.9061 48.7167 11.9141 47.2977C11.9222 45.8787 12.2117 44.4755 12.7658 43.1691C13.32 41.8628 14.1278 40.6794 15.1425 39.6875L25.415 29.415C25.6007 29.2291 25.7479 29.0085 25.8483 28.7657C25.9486 28.5229 26.0002 28.2627 26 28V16H48V26.145C44.6702 26.6303 41.626 28.2969 39.4229 30.8405C37.2199 33.384 36.005 36.635 36 40C35.9909 42.5329 36.6766 45.0197 37.9825 47.19L30.3125 54.8575ZM47.415 37.75L40.9375 44.2275C40.3169 42.9048 39.9967 41.4611 40 40C40.0024 37.6957 40.7996 35.4629 42.257 33.678C43.7144 31.8932 45.7428 30.6657 48 30.2025V36.3425C47.9984 36.8705 47.7881 37.3764 47.415 37.75Z" fill="#343330"/>
</svg>
