<svg width="64" height="64" viewBox="0 0 64 64" fill="none" xmlns="http://www.w3.org/2000/svg">
<path d="M63.575 26.9775L57.195 14.2125C56.96 13.7426 56.6347 13.3237 56.2377 12.9796C55.8408 12.6355 55.3799 12.3729 54.8815 12.207C54.3831 12.041 53.8568 11.9748 53.3328 12.0122C52.8088 12.0496 52.2973 12.1899 51.8275 12.425L45.61 15.5325L32.5125 12.0675C32.1764 11.98 31.8236 11.98 31.4875 12.0675L18.39 15.5325L12.1725 12.425C11.7027 12.1899 11.1912 12.0496 10.6672 12.0122C10.1432 11.9748 9.61695 12.041 9.11852 12.207C8.62009 12.3729 8.15924 12.6355 7.76228 12.9796C7.36533 13.3237 7.04005 13.7426 6.80501 14.2125L0.425013 26.975C0.189903 27.4448 0.0496384 27.9563 0.0122296 28.4803C-0.0251792 29.0043 0.0410004 29.5305 0.206989 30.029C0.372977 30.5274 0.635524 30.9883 0.979634 31.3852C1.32374 31.7822 1.74268 32.1074 2.21251 32.3425L8.96251 35.72L22.835 45.6275C23.0394 45.7729 23.2692 45.8789 23.5125 45.94L39.5125 49.94C39.8476 50.024 40.1987 50.0198 40.5317 49.9278C40.8647 49.8358 41.1681 49.6591 41.4125 49.415L55.18 35.645L61.785 32.3425C62.7332 31.8678 63.4542 31.036 63.7894 30.03C64.1245 29.024 64.0465 27.926 63.5725 26.9775H63.575ZM49.8525 35.32L41.25 28.43C40.8646 28.1214 40.3787 27.9662 39.8858 27.9943C39.3928 28.0225 38.9277 28.232 38.58 28.5825C34.1275 33.0675 29.165 32.5 26 30.5L36.81 20H44.7625L51.565 33.6025L49.8525 35.32ZM10.3825 16L15.5 18.555L9.10751 31.3175L4.00001 28.765L10.3825 16ZM39.3825 45.7825L24.855 42.1525L12.555 33.3675L19.555 19.3675L32 16.07L34.45 16.7175L23.2 27.6375L23.18 27.66C22.7565 28.0835 22.4335 28.5966 22.2349 29.1616C22.0362 29.7266 21.967 30.329 22.0323 30.9243C22.0975 31.5197 22.2956 32.0927 22.612 32.6013C22.9283 33.1098 23.3548 33.5408 23.86 33.8625C29 37.145 35.2025 36.6125 40.0875 32.6125L47 38.165L39.3825 45.7825ZM54.8825 31.315L48.5025 18.565L53.6175 16L60 28.765L54.8825 31.315ZM32.945 54.4825C32.837 54.9147 32.5877 55.2986 32.2367 55.573C31.8857 55.8475 31.4531 55.9969 31.0075 55.9975C30.8432 55.9973 30.6795 55.9771 30.52 55.9375L20.1025 53.3325C19.8589 53.2724 19.6289 53.1663 19.425 53.02L12.8375 48.315C12.4325 47.997 12.1657 47.5349 12.0928 47.0252C12.0198 46.5154 12.1464 45.9971 12.446 45.5783C12.7456 45.1594 13.1953 44.8723 13.7013 44.7767C14.2073 44.6811 14.7307 44.7843 15.1625 45.065L21.44 49.55L31.5 52.06C32.0145 52.1887 32.4568 52.5165 32.7296 52.9712C33.0025 53.426 33.0836 53.9705 32.955 54.485L32.945 54.4825Z" fill="#343330"/>
</svg>
