<svg width="64" height="64" viewBox="0 0 64 64" fill="none" xmlns="http://www.w3.org/2000/svg">
<path d="M50 36H30.825L31.4125 35.4125L36.4275 30.3975C38.453 31.4176 40.6848 31.9614 42.9525 31.9875C45.2351 31.9935 47.4749 31.3689 49.425 30.1825C55.355 26.5925 58.5325 18.2825 57.925 7.95249C57.8964 7.4632 57.6892 7.00144 57.3426 6.65487C56.996 6.3083 56.5343 6.10106 56.045 6.07249C45.715 5.46749 37.405 8.64249 33.815 14.5725C31.475 18.435 31.415 23.1 33.5975 27.5725L30 31.17L26.9475 28.1175C28.4475 24.805 28.34 21.3675 26.6 18.4975C23.8825 14 17.6525 11.6025 9.93249 12.055C9.44405 12.0841 8.98322 12.2912 8.63723 12.6372C8.29124 12.9832 8.08409 13.444 8.05499 13.9325C7.59999 21.65 9.99999 27.88 14.5 30.6C16.0055 31.5192 17.736 32.0038 19.5 32C21.1003 31.9841 22.6787 31.627 24.13 30.9525L27.17 34L25.17 36H14C13.4696 36 12.9608 36.2107 12.5858 36.5858C12.2107 36.9608 12 37.4696 12 38C12 38.5304 12.2107 39.0391 12.5858 39.4142C12.9608 39.7893 13.4696 40 14 40H16.3975L19.7 54.8675C19.8936 55.7579 20.387 56.5549 21.0979 57.1251C21.8087 57.6953 22.6937 58.0042 23.605 58H40.3975C41.3087 58.0042 42.1938 57.6953 42.9046 57.1251C43.6154 56.5549 44.1089 55.7579 44.3025 54.8675L47.605 40H50C50.5304 40 51.0391 39.7893 51.4142 39.4142C51.7893 39.0391 52 38.5304 52 38C52 37.4696 51.7893 36.9608 51.4142 36.5858C51.0391 36.2107 50.5304 36 50 36ZM37.25 16.645C39.865 12.33 46.06 9.89499 54 10.0025C54.1025 17.955 51.6725 24.1475 47.3575 26.7525C44.48 28.5025 41.0075 28.3875 37.5375 26.4575C35.605 23 35.5 19.5225 37.25 16.645ZM23.0275 27.0275C20.7275 28.26 18.45 28.3175 16.57 27.1775C13.695 25.435 12.0375 21.3275 12 16C17.3275 16.0375 21.4375 17.695 23.1775 20.57C24.3175 22.45 24.25 24.7275 23.0275 27.0275ZM40.3975 54H23.605L20.5 40H43.5L40.3975 54Z" fill="#343330"/>
</svg>
