<svg width="64" height="64" viewBox="0 0 64 64" fill="none" xmlns="http://www.w3.org/2000/svg">
<path d="M54 18C54 18.5304 53.7893 19.0391 53.4142 19.4142C53.0391 19.7893 52.5304 20 52 20H44C43.4696 20 42.9609 19.7893 42.5858 19.4142C42.2107 19.0391 42 18.5304 42 18C42 17.4696 42.2107 16.9609 42.5858 16.5858C42.9609 16.2107 43.4696 16 44 16H52C52.5304 16 53.0391 16.2107 53.4142 16.5858C53.7893 16.9609 54 17.4696 54 18ZM52 24H44C43.4696 24 42.9609 24.2107 42.5858 24.5858C42.2107 24.9609 42 25.4696 42 26C42 26.5304 42.2107 27.0391 42.5858 27.4142C42.9609 27.7893 43.4696 28 44 28H52C52.5304 28 53.0391 27.7893 53.4142 27.4142C53.7893 27.0391 54 26.5304 54 26C54 25.4696 53.7893 24.9609 53.4142 24.5858C53.0391 24.2107 52.5304 24 52 24ZM62 12V52C62 53.0609 61.5786 54.0783 60.8284 54.8284C60.0783 55.5786 59.0609 56 58 56H38C36.9391 56 35.9217 55.5786 35.1716 54.8284C34.4214 54.0783 34 53.0609 34 52V48H24V52H28C28.5304 52 29.0391 52.2107 29.4142 52.5858C29.7893 52.9609 30 53.4696 30 54C30 54.5304 29.7893 55.0391 29.4142 55.4142C29.0391 55.7893 28.5304 56 28 56H16C15.4696 56 14.9609 55.7893 14.5858 55.4142C14.2107 55.0391 14 54.5304 14 54C14 53.4696 14.2107 52.9609 14.5858 52.5858C14.9609 52.2107 15.4696 52 16 52H20V48H8C6.4087 48 4.88258 47.3679 3.75736 46.2426C2.63214 45.1174 2 43.5913 2 42V24C2 22.4087 2.63214 20.8826 3.75736 19.7574C4.88258 18.6321 6.4087 18 8 18H34V12C34 10.9391 34.4214 9.92172 35.1716 9.17157C35.9217 8.42143 36.9391 8 38 8H58C59.0609 8 60.0783 8.42143 60.8284 9.17157C61.5786 9.92172 62 10.9391 62 12ZM34 44V22H8C7.46957 22 6.96086 22.2107 6.58579 22.5858C6.21071 22.9609 6 23.4696 6 24V42C6 42.5304 6.21071 43.0391 6.58579 43.4142C6.96086 43.7893 7.46957 44 8 44H34ZM58 52V12H38V52H58ZM48 42C47.4067 42 46.8266 42.1759 46.3333 42.5056C45.8399 42.8352 45.4554 43.3038 45.2284 43.852C45.0013 44.4001 44.9419 45.0033 45.0576 45.5853C45.1734 46.1672 45.4591 46.7018 45.8787 47.1213C46.2982 47.5409 46.8328 47.8266 47.4147 47.9424C47.9967 48.0581 48.5999 47.9987 49.148 47.7716C49.6962 47.5446 50.1648 47.1601 50.4944 46.6667C50.8241 46.1734 51 45.5933 51 45C51 44.2044 50.6839 43.4413 50.1213 42.8787C49.5587 42.3161 48.7956 42 48 42Z" fill="#343330"/>
</svg>
