<svg width="64" height="64" viewBox="0 0 64 64" fill="none" xmlns="http://www.w3.org/2000/svg">
<path d="M63.855 29.25L60.355 20.5C60.0581 19.7597 59.5457 19.1256 58.8842 18.6798C58.2227 18.2341 57.4426 17.9973 56.645 18H48V16C48 15.4696 47.7893 14.9609 47.4142 14.5858C47.0391 14.2107 46.5304 14 46 14H8C6.93913 14 5.92172 14.4214 5.17157 15.1716C4.42143 15.9217 4 16.9391 4 18V46C4 47.0609 4.42143 48.0783 5.17157 48.8284C5.92172 49.5786 6.93913 50 8 50H12.25C12.6906 51.7208 13.6914 53.2461 15.0946 54.3353C16.4978 55.4245 18.2237 56.0157 20 56.0157C21.7763 56.0157 23.5022 55.4245 24.9054 54.3353C26.3086 53.2461 27.3094 51.7208 27.75 50H40.25C40.6906 51.7208 41.6914 53.2461 43.0946 54.3353C44.4978 55.4245 46.2237 56.0157 48 56.0157C49.7763 56.0157 51.5022 55.4245 52.9054 54.3353C54.3086 53.2461 55.3094 51.7208 55.75 50H60C61.0609 50 62.0783 49.5786 62.8284 48.8284C63.5786 48.0783 64 47.0609 64 46V30C64.0007 29.743 63.9514 29.4883 63.855 29.25ZM48 22H56.645L59.045 28H48V22ZM8 18H44V34H8V18ZM20 52C19.2089 52 18.4355 51.7654 17.7777 51.3259C17.1199 50.8864 16.6072 50.2616 16.3045 49.5307C16.0017 48.7998 15.9225 47.9956 16.0769 47.2196C16.2312 46.4437 16.6122 45.731 17.1716 45.1716C17.731 44.6122 18.4437 44.2312 19.2196 44.0769C19.9956 43.9225 20.7998 44.0017 21.5307 44.3045C22.2616 44.6072 22.8864 45.1199 23.3259 45.7777C23.7654 46.4355 24 47.2089 24 48C24 49.0609 23.5786 50.0783 22.8284 50.8284C22.0783 51.5786 21.0609 52 20 52ZM40.25 46H27.75C27.3094 44.2792 26.3086 42.7539 24.9054 41.6647C23.5022 40.5755 21.7763 39.9843 20 39.9843C18.2237 39.9843 16.4978 40.5755 15.0946 41.6647C13.6914 42.7539 12.6906 44.2792 12.25 46H8V38H44V41.0775C43.0803 41.6091 42.2753 42.3179 41.6316 43.1629C40.9879 44.0079 40.5183 44.9722 40.25 46ZM48 52C47.2089 52 46.4355 51.7654 45.7777 51.3259C45.1199 50.8864 44.6072 50.2616 44.3045 49.5307C44.0017 48.7998 43.9225 47.9956 44.0769 47.2196C44.2312 46.4437 44.6122 45.731 45.1716 45.1716C45.731 44.6122 46.4437 44.2312 47.2196 44.0769C47.9956 43.9225 48.7998 44.0017 49.5307 44.3045C50.2616 44.6072 50.8864 45.1199 51.3259 45.7777C51.7654 46.4355 52 47.2089 52 48C52 49.0609 51.5786 50.0783 50.8284 50.8284C50.0783 51.5786 49.0609 52 48 52ZM60 46H55.75C55.3041 44.2834 54.3014 42.7631 52.899 41.6773C51.4966 40.5916 49.7736 40.0017 48 40V32H60V46Z" fill="#343330"/>
</svg>
