<svg width="64" height="64" viewBox="0 0 64 64" fill="none" xmlns="http://www.w3.org/2000/svg">
<path d="M58.875 54.2025C53.235 51.4525 50 45.5575 50 38.0025V33.6825C50.0021 32.881 49.7625 32.0976 49.3125 31.4344C48.8625 30.7712 48.223 30.2591 47.4775 29.965L41.25 27.5C40.76 27.304 40.3674 26.9223 40.1576 26.4381C39.9478 25.9539 39.9379 25.4065 40.13 24.915L45.46 11.665C45.8217 10.7953 46.0042 9.86162 45.9966 8.91977C45.9889 7.97792 45.7913 7.0473 45.4155 6.18364C45.0397 5.31998 44.4934 4.54105 43.8095 3.89349C43.1255 3.24592 42.3179 2.74305 41.435 2.41498C39.7153 1.78489 37.8177 1.85027 36.1455 2.59721C34.4733 3.34415 33.1583 4.71377 32.48 6.41498C32.479 6.42496 32.479 6.435 32.48 6.44498L27.225 19.75C27.0295 20.2422 26.6468 20.6368 26.1608 20.8473C25.6748 21.0577 25.1252 21.0668 24.6325 20.8725L18.2775 18.285C17.5448 17.9881 16.7401 17.9165 15.9666 18.0795C15.193 18.2426 14.4856 18.6327 13.935 19.2C8.66999 24.6125 5.99999 30.9375 5.99999 38C5.98615 45.2273 8.78117 52.1772 13.795 57.3825C13.9828 57.5789 14.2087 57.7349 14.4589 57.8411C14.7091 57.9472 14.9782 58.0013 15.25 58H58C58.452 57.9995 58.8906 57.846 59.2442 57.5643C59.5978 57.2827 59.8455 56.8895 59.947 56.449C60.0485 56.0085 59.9978 55.5466 59.8031 55.1387C59.6084 54.7307 59.2813 54.4007 58.875 54.2025ZM16.785 22L23.1375 24.575C23.8708 24.8683 24.6547 25.014 25.4445 25.0037C26.2342 24.9934 27.0141 24.8273 27.7394 24.5149C28.4648 24.2025 29.1214 23.75 29.6714 23.1833C30.2215 22.6166 30.6543 21.9468 30.945 21.2125L36.195 7.96248C36.835 6.43498 38.5625 5.64498 40.0525 6.21248C40.4324 6.35342 40.7797 6.56985 41.0737 6.84871C41.3676 7.12758 41.602 7.46309 41.7628 7.83502C41.9235 8.20695 42.0072 8.60759 42.0089 9.01276C42.0106 9.41793 41.9301 9.81924 41.7725 10.1925L36.4225 23.44C35.8368 24.9177 35.8613 26.5674 36.4908 28.027C37.1203 29.4866 38.3033 30.6368 39.78 31.225L46 33.6825V38C46 38.0825 46 38.165 46 38.25L13.9425 25.4275C14.7948 24.2092 15.7454 23.0629 16.785 22ZM28.785 54C25.8073 51.1437 23.6978 47.5037 22.7 43.5C22.5609 42.9936 22.2283 42.5622 21.7739 42.299C21.3195 42.0358 20.7798 41.9618 20.2713 42.0931C19.7629 42.2244 19.3265 42.5504 19.0563 43.0008C18.7862 43.4511 18.704 43.9896 18.8275 44.5C19.6998 47.9443 21.2613 51.176 23.4175 54H16.11C12.1654 49.6053 9.98873 43.9052 9.99999 38C9.97553 34.8711 10.6351 31.7747 11.9325 28.9275L46.3825 42.7075C47.1325 47.2075 49.0225 51.0775 51.855 53.9975L28.785 54Z" fill="#343330"/>
</svg>
