<svg width="64" height="64" viewBox="0 0 64 64" fill="none" xmlns="http://www.w3.org/2000/svg">
<path d="M59.9275 31.25L55.8225 9.25004C55.7222 8.71378 55.5132 8.20371 55.2085 7.75119C54.9038 7.29867 54.5097 6.91327 54.0505 6.6187C53.5913 6.32412 53.0767 6.12659 52.5383 6.03826C52 5.94992 51.4492 5.97265 50.92 6.10504L50.8425 6.12754L37.7125 10H26.2875L13.1575 6.14004L13.08 6.11754C12.5507 5.98515 12 5.96242 11.4616 6.05076C10.9233 6.13909 10.4087 6.33662 9.94947 6.6312C9.49028 6.92577 9.0962 7.31117 8.79147 7.76369C8.48673 8.21621 8.27779 8.72628 8.17748 9.26254L4.07248 31.25C3.89694 32.1306 4.02724 33.0447 4.44184 33.8412C4.85643 34.6377 5.53048 35.2687 6.35248 35.63C6.87891 35.8715 7.45084 35.9976 8.02998 36C8.72316 35.9997 9.40353 35.8132 9.99998 35.46V46C9.99998 48.6522 11.0535 51.1957 12.9289 53.0711C14.8043 54.9465 17.3478 56 20 56H44C46.6521 56 49.1957 54.9465 51.071 53.0711C52.9464 51.1957 54 48.6522 54 46V35.4625C54.5958 35.8151 55.2752 36.0015 55.9675 36.0025C56.5472 36.0009 57.12 35.8756 57.6475 35.635C58.4705 35.2735 59.1452 34.6417 59.5599 33.8442C59.9746 33.0466 60.1043 32.1314 59.9275 31.25ZM7.99998 32L12.1075 10L22.625 13.0925L7.99998 32ZM44 52H34V48.8275L37.415 45.415C37.7903 45.0398 38.0011 44.5308 38.0011 44C38.0011 43.4693 37.7903 42.9603 37.415 42.585C37.0397 42.2098 36.5307 41.9989 36 41.9989C35.4693 41.9989 34.9603 42.2098 34.585 42.585L32 45.1725L29.415 42.585C29.0397 42.2098 28.5307 41.9989 28 41.9989C27.4693 41.9989 26.9603 42.2098 26.585 42.585C26.2097 42.9603 25.9989 43.4693 25.9989 44C25.9989 44.5308 26.2097 45.0398 26.585 45.415L30 48.8275V52H20C18.4087 52 16.8826 51.3679 15.7573 50.2427C14.6321 49.1175 14 47.5913 14 46V30.7775L26.98 14H37.0175L50 30.7775V46C50 47.5913 49.3678 49.1175 48.2426 50.2427C47.1174 51.3679 45.5913 52 44 52ZM56 32L41.375 13.0925L51.8925 10L56 32ZM26 35C26 35.5934 25.824 36.1734 25.4944 36.6667C25.1647 37.1601 24.6962 37.5446 24.148 37.7717C23.5999 37.9987 22.9967 38.0582 22.4147 37.9424C21.8328 37.8266 21.2982 37.5409 20.8787 37.1214C20.4591 36.7018 20.1734 36.1673 20.0576 35.5853C19.9419 35.0034 20.0013 34.4002 20.2283 33.852C20.4554 33.3038 20.8399 32.8353 21.3333 32.5056C21.8266 32.176 22.4066 32 23 32C23.7956 32 24.5587 32.3161 25.1213 32.8787C25.6839 33.4413 26 34.2044 26 35ZM44 35C44 35.5934 43.824 36.1734 43.4944 36.6667C43.1647 37.1601 42.6962 37.5446 42.148 37.7717C41.5999 37.9987 40.9967 38.0582 40.4147 37.9424C39.8328 37.8266 39.2982 37.5409 38.8787 37.1214C38.4591 36.7018 38.1734 36.1673 38.0576 35.5853C37.9419 35.0034 38.0013 34.4002 38.2283 33.852C38.4554 33.3038 38.8399 32.8353 39.3333 32.5056C39.8266 32.176 40.4066 32 41 32C41.7956 32 42.5587 32.3161 43.1213 32.8787C43.6839 33.4413 44 34.2044 44 35Z" fill="#343330"/>
</svg>
