<svg width="64" height="64" viewBox="0 0 64 64" fill="none" xmlns="http://www.w3.org/2000/svg">
<path d="M58 26H52V14H58C58.5304 14 59.0391 13.7893 59.4142 13.4142C59.7893 13.0391 60 12.5304 60 12C60 11.4696 59.7893 10.9609 59.4142 10.5858C59.0391 10.2107 58.5304 10 58 10H51.4575C51.107 9.39289 50.6031 8.88856 49.9963 8.53755C49.3894 8.18653 48.701 8.00116 48 8H44C43.299 8.00116 42.6106 8.18653 42.0037 8.53755C41.3969 8.88856 40.893 9.39289 40.5425 10H36C29.1066 10.0073 22.4976 12.7489 17.6233 17.6233C12.7489 22.4976 10.0073 29.1066 10 36V40.54C9.39253 40.8907 8.88796 41.395 8.53692 42.0023C8.18589 42.6096 8.00072 43.2985 8 44V48C8.00072 48.7015 8.18589 49.3904 8.53692 49.9977C8.88796 50.605 9.39253 51.1093 10 51.46V58C10 58.5304 10.2107 59.0391 10.5858 59.4142C10.9609 59.7893 11.4696 60 12 60C12.5304 60 13.0391 59.7893 13.4142 59.4142C13.7893 59.0391 14 58.5304 14 58V52H26V58C26 58.5304 26.2107 59.0391 26.5858 59.4142C26.9609 59.7893 27.4696 60 28 60C28.5304 60 29.0391 59.7893 29.4142 59.4142C29.7893 59.0391 30 58.5304 30 58V51.46C30.6075 51.1093 31.112 50.605 31.4631 49.9977C31.8141 49.3904 31.9993 48.7015 32 48V44C31.9993 43.2985 31.8141 42.6096 31.4631 42.0023C31.112 41.395 30.6075 40.8907 30 40.54V36C30 34.4087 30.6321 32.8826 31.7574 31.7574C32.8826 30.6321 34.4087 30 36 30H40.5425C40.893 30.6071 41.3969 31.1114 42.0037 31.4625C42.6106 31.8135 43.299 31.9988 44 32H48C48.701 31.9988 49.3894 31.8135 49.9963 31.4625C50.6031 31.1114 51.107 30.6071 51.4575 30H58C58.5304 30 59.0391 29.7893 59.4142 29.4142C59.7893 29.0391 60 28.5304 60 28C60 27.4696 59.7893 26.9609 59.4142 26.5858C59.0391 26.2107 58.5304 26 58 26ZM28 44V48H12V44H28ZM26 36V40H14V36C14.0066 30.1673 16.3266 24.5753 20.451 20.451C24.5753 16.3266 30.1673 14.0066 36 14H40V26H36C33.3478 26 30.8043 27.0536 28.9289 28.9289C27.0536 30.8043 26 33.3478 26 36ZM44 28V12H48V27.95C48 27.9675 48 27.9825 48 28H44Z" fill="#343330"/>
</svg>
