<svg width="64" height="64" viewBox="0 0 64 64" fill="none" xmlns="http://www.w3.org/2000/svg">
<path d="M62.835 28L45.97 11.02C41.4658 6.52485 35.3623 4.00024 28.9988 4.00024C22.6353 4.00024 16.5317 6.52485 12.0275 11.02L12.005 11.0425L8.5625 14.6C8.2059 14.9833 8.01376 15.491 8.02734 16.0143C8.04092 16.5377 8.25913 17.0348 8.63514 17.399C9.01114 17.7632 9.51496 17.9655 10.0384 17.9624C10.5619 17.9594 11.0633 17.7512 11.435 17.3825L14.8675 13.8375C16.2485 12.4568 17.8244 11.2861 19.545 10.3625L31.17 22L7.17 46C6.79847 46.3715 6.50375 46.8125 6.30268 47.2978C6.1016 47.7832 5.99811 48.3034 5.99811 48.8288C5.99811 49.3541 6.1016 49.8744 6.30268 50.3597C6.50375 50.8451 6.79847 51.2861 7.17 51.6575L12.3425 56.83C12.7139 57.2016 13.1549 57.4963 13.6403 57.6974C14.1257 57.8984 14.6459 58.0019 15.1713 58.0019C15.6966 58.0019 16.2168 57.8984 16.7022 57.6974C17.1876 57.4963 17.6286 57.2016 18 56.83L42 32.83L45.585 36.415L50 40.825C50.3715 41.1966 50.8124 41.4913 51.2978 41.6924C51.7832 41.8934 52.3034 41.9969 52.8288 41.9969C53.3541 41.9969 53.8743 41.8934 54.3597 41.6924C54.8451 41.4913 55.2861 41.1966 55.6575 40.825L62.83 33.6525C63.5795 32.9032 64.001 31.8871 64.0019 30.8273C64.0028 29.7675 63.5832 28.7507 62.835 28ZM15.17 54L10 48.8275L27 31.8275L32.17 37L15.17 54ZM40.585 28.58L35 34.1675L29.8275 29L35.415 23.4125C35.601 23.2268 35.7485 23.0062 35.8491 22.7634C35.9498 22.5206 36.0016 22.2604 36.0016 21.9975C36.0016 21.7347 35.9498 21.4744 35.8491 21.2316C35.7485 20.9889 35.601 20.7683 35.415 20.5825L23.58 8.75003C26.9993 7.78702 30.6135 7.75211 34.0508 8.64889C37.488 9.54568 40.6245 11.3418 43.1375 13.8525L54.1925 24.98L47 32.165L43.415 28.58C43.2293 28.3941 43.0087 28.2466 42.7659 28.1459C42.5231 28.0453 42.2628 27.9935 42 27.9935C41.7372 27.9935 41.4769 28.0453 41.2341 28.1459C40.9913 28.2466 40.7707 28.3941 40.585 28.58ZM52.835 37.995L49.835 34.995L57 27.8125L60 30.8125L52.835 37.995Z" fill="#343330"/>
</svg>
