<svg width="64" height="64" viewBox="0 0 64 64" fill="none" xmlns="http://www.w3.org/2000/svg">
<path d="M20 30H44C44.5304 30 45.0391 29.7893 45.4142 29.4142C45.7893 29.0391 46 28.5304 46 28V16C46 15.4696 45.7893 14.9609 45.4142 14.5858C45.0391 14.2107 44.5304 14 44 14H20C19.4696 14 18.9609 14.2107 18.5858 14.5858C18.2107 14.9609 18 15.4696 18 16V28C18 28.5304 18.2107 29.0391 18.5858 29.4142C18.9609 29.7893 19.4696 30 20 30ZM22 18H42V26H22V18ZM50 6H14C12.9391 6 11.9217 6.42143 11.1716 7.17157C10.4214 7.92172 10 8.93913 10 10V54C10 55.0609 10.4214 56.0783 11.1716 56.8284C11.9217 57.5786 12.9391 58 14 58H50C51.0609 58 52.0783 57.5786 52.8284 56.8284C53.5786 56.0783 54 55.0609 54 54V10C54 8.93913 53.5786 7.92172 52.8284 7.17157C52.0783 6.42143 51.0609 6 50 6ZM50 54H14V10H50V54ZM25 37C25 37.5933 24.8241 38.1734 24.4944 38.6667C24.1648 39.1601 23.6962 39.5446 23.1481 39.7716C22.5999 39.9987 21.9967 40.0581 21.4147 39.9424C20.8328 39.8266 20.2982 39.5409 19.8787 39.1213C19.4591 38.7018 19.1734 38.1672 19.0576 37.5853C18.9419 37.0033 19.0013 36.4001 19.2284 35.852C19.4554 35.3038 19.8399 34.8352 20.3333 34.5056C20.8266 34.1759 21.4067 34 22 34C22.7956 34 23.5587 34.3161 24.1213 34.8787C24.6839 35.4413 25 36.2044 25 37ZM35 37C35 37.5933 34.8241 38.1734 34.4944 38.6667C34.1648 39.1601 33.6962 39.5446 33.148 39.7716C32.5999 39.9987 31.9967 40.0581 31.4147 39.9424C30.8328 39.8266 30.2982 39.5409 29.8787 39.1213C29.4591 38.7018 29.1734 38.1672 29.0576 37.5853C28.9419 37.0033 29.0013 36.4001 29.2284 35.852C29.4554 35.3038 29.8399 34.8352 30.3333 34.5056C30.8266 34.1759 31.4067 34 32 34C32.7956 34 33.5587 34.3161 34.1213 34.8787C34.6839 35.4413 35 36.2044 35 37ZM45 37C45 37.5933 44.8241 38.1734 44.4944 38.6667C44.1648 39.1601 43.6962 39.5446 43.148 39.7716C42.5999 39.9987 41.9967 40.0581 41.4147 39.9424C40.8328 39.8266 40.2982 39.5409 39.8787 39.1213C39.4591 38.7018 39.1734 38.1672 39.0576 37.5853C38.9419 37.0033 39.0013 36.4001 39.2284 35.852C39.4554 35.3038 39.8399 34.8352 40.3333 34.5056C40.8266 34.1759 41.4067 34 42 34C42.7956 34 43.5587 34.3161 44.1213 34.8787C44.6839 35.4413 45 36.2044 45 37ZM25 47C25 47.5933 24.8241 48.1734 24.4944 48.6667C24.1648 49.1601 23.6962 49.5446 23.1481 49.7716C22.5999 49.9987 21.9967 50.0581 21.4147 49.9424C20.8328 49.8266 20.2982 49.5409 19.8787 49.1213C19.4591 48.7018 19.1734 48.1672 19.0576 47.5853C18.9419 47.0033 19.0013 46.4001 19.2284 45.852C19.4554 45.3038 19.8399 44.8352 20.3333 44.5056C20.8266 44.1759 21.4067 44 22 44C22.7956 44 23.5587 44.3161 24.1213 44.8787C24.6839 45.4413 25 46.2044 25 47ZM35 47C35 47.5933 34.8241 48.1734 34.4944 48.6667C34.1648 49.1601 33.6962 49.5446 33.148 49.7716C32.5999 49.9987 31.9967 50.0581 31.4147 49.9424C30.8328 49.8266 30.2982 49.5409 29.8787 49.1213C29.4591 48.7018 29.1734 48.1672 29.0576 47.5853C28.9419 47.0033 29.0013 46.4001 29.2284 45.852C29.4554 45.3038 29.8399 44.8352 30.3333 44.5056C30.8266 44.1759 31.4067 44 32 44C32.7956 44 33.5587 44.3161 34.1213 44.8787C34.6839 45.4413 35 46.2044 35 47ZM45 47C45 47.5933 44.8241 48.1734 44.4944 48.6667C44.1648 49.1601 43.6962 49.5446 43.148 49.7716C42.5999 49.9987 41.9967 50.0581 41.4147 49.9424C40.8328 49.8266 40.2982 49.5409 39.8787 49.1213C39.4591 48.7018 39.1734 48.1672 39.0576 47.5853C38.9419 47.0033 39.0013 46.4001 39.2284 45.852C39.4554 45.3038 39.8399 44.8352 40.3333 44.5056C40.8266 44.1759 41.4067 44 42 44C42.7956 44 43.5587 44.3161 44.1213 44.8787C44.6839 45.4413 45 46.2044 45 47Z" fill="#343330"/>
</svg>
