<svg width="64" height="64" viewBox="0 0 64 64" fill="none" xmlns="http://www.w3.org/2000/svg">
<path d="M60 26H57.3L50.355 10.375C50.0407 9.66807 49.5281 9.06745 48.8794 8.64591C48.2307 8.22437 47.4737 8.00001 46.7 8H17.3C16.5263 8.00001 15.7693 8.22437 15.1206 8.64591C14.4719 9.06745 13.9593 9.66807 13.645 10.375L6.7 26H4C3.46957 26 2.96086 26.2107 2.58579 26.5858C2.21071 26.9609 2 27.4696 2 28C2 28.5304 2.21071 29.0391 2.58579 29.4142C2.96086 29.7893 3.46957 30 4 30H6V50C6 51.0609 6.42143 52.0783 7.17157 52.8284C7.92172 53.5786 8.93913 54 10 54H16C17.0609 54 18.0783 53.5786 18.8284 52.8284C19.5786 52.0783 20 51.0609 20 50V46H44V50C44 51.0609 44.4214 52.0783 45.1716 52.8284C45.9217 53.5786 46.9391 54 48 54H54C55.0609 54 56.0783 53.5786 56.8284 52.8284C57.5786 52.0783 58 51.0609 58 50V30H60C60.5304 30 61.0391 29.7893 61.4142 29.4142C61.7893 29.0391 62 28.5304 62 28C62 27.4696 61.7893 26.9609 61.4142 26.5858C61.0391 26.2107 60.5304 26 60 26ZM17.3 12H46.7L52.9225 26H11.0775L17.3 12ZM16 50H10V46H16V50ZM48 50V46H54V50H48ZM54 42H10V30H54V42ZM14 36C14 35.4696 14.2107 34.9609 14.5858 34.5858C14.9609 34.2107 15.4696 34 16 34H20C20.5304 34 21.0391 34.2107 21.4142 34.5858C21.7893 34.9609 22 35.4696 22 36C22 36.5304 21.7893 37.0391 21.4142 37.4142C21.0391 37.7893 20.5304 38 20 38H16C15.4696 38 14.9609 37.7893 14.5858 37.4142C14.2107 37.0391 14 36.5304 14 36ZM42 36C42 35.4696 42.2107 34.9609 42.5858 34.5858C42.9609 34.2107 43.4696 34 44 34H48C48.5304 34 49.0391 34.2107 49.4142 34.5858C49.7893 34.9609 50 35.4696 50 36C50 36.5304 49.7893 37.0391 49.4142 37.4142C49.0391 37.7893 48.5304 38 48 38H44C43.4696 38 42.9609 37.7893 42.5858 37.4142C42.2107 37.0391 42 36.5304 42 36Z" fill="#343330"/>
</svg>
